<svg width="286" height="287" viewBox="0 0 286 287" fill="none" xmlns="http://www.w3.org/2000/svg">
<path d="M263.172 46.2719C261.799 46.2373 260.443 46.1813 259.103 46.1199C258.886 46.1159 258.666 46.1026 258.444 46.0986C257.29 46.0413 256.164 45.9906 255.066 45.9306C253.658 41.4253 254.308 34.0639 254.08 29.2373C252.263 29.1573 250.447 29.0746 248.615 28.9919C249.422 35.7119 248.618 43.1653 249.175 49.6453C255.84 50.5039 263.702 50.3986 269.986 51.0693C269.466 48.8599 270.056 48.2146 269.455 46.3333C267.342 46.3573 265.239 46.3333 263.172 46.2719Z" fill="#171717"/>
<path fill-rule="evenodd" clip-rule="evenodd" d="M192.97 88.556C194.994 88.704 197.015 88.9254 199.04 88.972C200.331 89 201.622 88.744 202.918 88.6387C207.231 88.2907 212.03 89.0147 215.719 87.3267C219.952 85.3867 224.035 86.2934 228.118 85.7134C232.791 85.044 237.164 86.9147 241.522 88.62C252.287 92.8187 256.239 101.855 257.912 112.085C260.723 129.244 262.924 146.499 265.454 163.703C267.188 175.488 269.066 187.244 270.803 199.024C271.038 200.632 271.708 202.868 268.219 202.579C267.231 196.916 266.122 191.187 265.25 185.419C264.219 178.623 263.446 171.791 262.466 164.985C261.754 160.045 260.27 155.127 260.255 150.196C260.238 144.78 257.563 139.973 258.212 134.245C258.774 129.255 256.252 123.944 255.287 118.737C254.898 116.616 254.888 114.396 254.946 112.231C255.071 107.848 252.87 104.129 250.656 100.909C248.026 97.0894 244.416 93.6267 240.523 91.1067C238.054 89.5027 234.31 89.6987 231.112 89.4627C229.203 89.3214 227.251 90.0294 225.31 90.084C224.783 90.0987 224.231 89.1361 224.274 89.1747C222.534 89.7374 221.26 90.3507 219.927 90.5454C216.634 91.04 213.322 91.4587 210.003 91.6734C208.452 91.7694 206.88 91.2067 205.316 91.1707C204.723 91.1534 204.15 91.98 203.515 92.0734C193.403 93.5747 183.283 94.9907 173.174 96.496C171.055 96.8107 168.975 97.8227 166.89 97.7907C163.515 97.7294 160.283 98.524 156.978 98.772C156.58 98.8027 156.115 98.0054 155.966 97.856C155.135 98.328 154.46 98.9787 153.696 99.1067C146.33 100.324 138.978 101.663 131.57 102.533C126.103 103.177 120.539 102.959 115.064 103.541C111.267 103.952 107.568 105.201 103.786 105.835C96.9137 106.988 89.9817 107.811 83.1297 109.064C79.4603 109.74 79.8497 106.756 78.7723 105.309C85.5523 104.152 92.2457 102.88 98.9857 101.925C102.123 101.476 105.351 101.636 108.539 101.54C108.852 101.525 109.2 101.744 109.487 101.672C111.464 101.172 113.407 100.352 115.41 100.153C117.84 99.912 120.322 100.22 122.782 100.204C123.272 100.199 123.743 99.6947 124.254 99.604C127.618 98.9907 130.979 98.348 134.371 97.9534C134.862 97.9014 135.504 99.1454 136.586 100.359C136.896 99.128 137.122 98.2294 137.344 97.3254C137.851 95.1667 142.482 99.4934 141.75 94.4254C141.968 94.3974 142.192 94.368 142.412 94.336C142.874 94.916 143.306 95.9734 143.791 95.9987C145.931 96.0947 148.098 96.0134 150.226 95.7694C153.74 95.3707 157.222 94.712 160.731 94.32C165.391 93.8 170.208 93.9734 174.688 92.7974C177.404 92.0827 178.575 92.0067 179.648 94.7441C179.648 93.7161 179.65 92.684 179.655 91.5707C183.848 91.0227 188.031 90.5067 192.198 89.8707C192.512 89.8241 192.716 89.012 192.97 88.556Z" fill="#171717"/>
<path fill-rule="evenodd" clip-rule="evenodd" d="M18.122 110.649C17.9258 112.304 18.4747 113.332 20.3174 112.893C22.382 112.401 24.3846 111.64 26.4627 111.229C28.1564 110.891 29.9231 110.929 31.6518 110.745C35.8971 110.292 40.1346 109.733 44.3913 109.385C45.4815 109.293 46.6272 109.84 47.81 110.109C47.81 110.095 47.7695 109.409 47.6897 108.087C50.0725 108.483 52.2449 108.848 54.4153 109.211C54.5876 109.448 54.7606 109.685 54.934 109.924C54.9783 111.36 54.8862 112.404 52.8872 112.549C46.519 113.009 40.1616 113.657 33.8122 114.348C31.5616 114.593 29.3559 115.259 27.1096 115.549C25.995 115.693 24.8294 115.427 23.2824 115.313C20.8252 116.581 17.808 117.951 14.9778 119.635C7.16376 124.288 3.26736 131.237 4.06002 140.321C4.64762 147.067 5.92415 153.748 6.83869 160.467C7.12255 162.548 7.34029 164.656 7.33563 166.757C7.33563 167.363 6.37149 168.521 6.00962 168.464C5.22469 168.332 4.00483 167.669 3.90229 167.061C2.71483 160.04 1.68242 152.995 0.660557 145.945C0.439757 144.404 0.613756 142.797 0.295489 141.289C-0.607578 137.023 0.753888 133.161 1.77002 129.105C2.61162 125.752 4.08149 123.032 6.54135 120.905C9.46949 118.372 12.7674 116.268 15.7548 113.797C16.5939 113.105 16.9059 111.776 17.4591 110.737C17.6788 110.709 17.9002 110.677 18.122 110.649Z" fill="#171717"/>
<path fill-rule="evenodd" clip-rule="evenodd" d="M115.98 273.811C116.091 277.564 113.822 277.947 111.788 278.264C108.226 278.814 104.635 279.166 101.048 279.529C96.8337 279.96 92.5937 280.175 88.4003 280.733C84.1923 281.291 80.0443 282.268 75.843 282.875C66.231 284.259 56.633 285.797 46.9789 286.778C36.981 287.795 28.7059 284.726 22.2966 276.279C17.0201 269.33 16.5873 261.437 15.2575 253.168C16.3934 253.311 17.0622 253.397 17.7373 253.484C17.7939 253.196 17.9154 252.823 17.869 252.797C14.3043 251.087 14.7773 247.423 14.2565 244.529C12.9086 237.08 11.9862 229.548 11.0955 222.024C10.5778 217.671 10.6346 213.247 10.0903 208.897C9.58819 204.909 8.51485 200.991 7.90392 197.011C7.57419 194.856 7.76792 192.625 7.56539 190.448C7.46539 189.384 6.87152 188.371 6.71539 187.303C6.13205 183.34 5.56632 179.363 5.19765 175.377C5.14965 174.849 6.27525 174.213 6.85645 173.631C7.42419 174.297 8.38406 174.901 8.50339 175.645C9.53406 181.891 10.4529 188.16 11.3247 194.427C12.7778 204.879 14.2539 215.324 15.5622 225.789C16.9649 237 18.4101 248.22 19.4138 259.468C20.4658 271.243 28.4263 281.035 40.0695 283.178C43.7753 283.855 47.8091 283.126 51.6398 282.638C60.9201 281.467 70.159 279.972 79.435 278.764C88.703 277.559 98.0017 276.583 107.274 275.412C110.124 275.054 112.932 274.38 115.98 273.811Z" fill="#171717"/>
<path fill-rule="evenodd" clip-rule="evenodd" d="M117.68 277.462C115.578 274.084 117.732 273.577 119.576 273.287C124.883 272.445 130.22 271.785 135.548 271.056C144.202 269.864 152.851 268.608 161.519 267.517C165.028 267.075 168.594 267.125 172.103 266.687C175.659 266.242 179.16 265.396 182.706 264.848C187.243 264.148 191.799 263.592 196.34 262.928C202.204 262.075 208.034 260.863 213.922 260.426C217.064 260.19 220.26 258.148 223.544 260.193C223.914 260.426 224.916 259.436 225.678 259.297C229.156 258.677 232.658 258.133 236.154 257.611C241.362 256.828 246.563 255.977 251.79 255.359C262.882 254.038 269.248 247.42 271.418 237.101C272.847 230.304 271.31 223.509 269.964 216.777C269.446 214.181 269.474 211.471 269.26 208.896C271.684 207.741 272.87 208.743 273.132 210.903C273.966 217.903 274.699 224.911 275.455 231.92C276.003 236.988 274.696 241.589 271.798 245.737C270.488 247.615 269.191 249.54 267.635 251.205C263.842 255.276 259.358 257.645 253.522 257.923C248.832 258.144 244.224 259.778 239.534 260.431C232.811 261.365 226.032 261.881 219.306 262.783C216.498 263.154 213.767 264.112 210.979 264.684C209.179 265.049 207.336 265.212 205.508 265.436C195.243 266.693 184.974 267.949 174.702 269.187C173.284 269.36 171.83 269.349 170.42 269.568C166.235 270.212 162.071 270.983 157.886 271.608C153.264 272.297 148.626 272.871 144 273.514C138.327 274.3 132.655 275.087 126.992 275.913C125.002 276.202 123.036 276.777 121.043 276.888C119.846 276.956 118.695 273.933 117.68 277.462Z" fill="#171717"/>
<path fill-rule="evenodd" clip-rule="evenodd" d="M212.818 133.907C208.578 134.681 204.36 135.603 200.098 136.191C190.118 137.552 180.115 138.733 170.126 140.019C161.618 141.115 153.1 142.172 144.612 143.42C142.52 143.725 141.658 143.543 141.354 141.169C140.02 130.843 138.603 120.515 136.907 110.239C136.403 107.176 137.848 106.527 140.132 106.291C140.383 106.261 141.171 107.644 140.988 108C140.698 108.556 139.794 108.789 139.611 108.897C140.844 118.263 142.028 127.372 143.24 136.481C143.746 140.255 145.259 141.236 148.902 140.707C154.015 139.96 159.164 139.479 164.288 138.785C167.499 138.352 170.687 137.736 173.888 137.224C179.214 136.368 184.519 135.367 189.868 134.728C196.572 133.92 203.31 133.404 210.034 132.792C210.939 132.708 211.864 132.816 212.779 132.84C212.791 133.195 212.806 133.551 212.818 133.907Z" fill="#171717"/>
<path fill-rule="evenodd" clip-rule="evenodd" d="M48.2158 249.372C45.2101 245.909 46.019 243.336 49.8742 242.616C55.6455 241.548 61.4763 240.78 67.2925 239.961C70.563 239.504 71.6897 241.845 72.067 244.348C73.211 251.936 74.1243 259.564 75.099 267.185C75.2803 268.59 75.787 270.196 75.3097 271.378C74.7857 272.681 73.443 274.3 72.211 274.548C67.3706 275.502 62.431 275.975 57.5273 276.615C56.8663 276.703 56.1841 276.657 55.533 276.785C50.7903 277.727 49.5195 276.835 49.0169 271.979C48.957 271.392 49.5226 270.744 49.7977 270.123C50.445 270.615 51.6862 271.161 51.645 271.583C51.2362 275.699 53.8253 274.828 56.1893 274.506C61.7862 273.749 67.3914 273.028 73.6283 272.212C73.1683 268.712 72.7363 265.461 72.3177 262.217C71.6737 257.18 71.027 252.14 70.4043 247.097C69.879 242.865 69.3283 242.256 65.0482 242.621C59.9695 243.049 54.8997 243.639 49.871 244.44C49.0961 244.56 48.3982 246.131 47.9815 247.159C47.7393 247.767 48.1185 248.625 48.2158 249.372Z" fill="#171717"/>
<path fill-rule="evenodd" clip-rule="evenodd" d="M32.0424 140.369C30.9018 138.117 29.9466 136.239 28.5143 133.411C27.6476 136.332 27.0304 138.403 26.3096 140.831C28.5106 140.653 30.0804 140.531 32.0424 140.369ZM28.282 127.523C31.921 133.897 35.5638 140.272 39.2419 146.705C37.1039 148.595 35.7892 147.188 35.269 145.668C34.2278 142.621 31.8772 143.32 29.7892 143.387C28.5663 143.428 27.2367 143.761 26.1824 144.363C25.4763 144.768 25.2148 145.901 24.671 146.653C23.9408 147.66 23.131 148.612 22.3564 149.588C22.1106 148.479 21.4575 147.275 21.6835 146.268C22.8039 141.249 24.1163 136.271 25.4622 131.303C25.7908 130.091 26.4987 128.988 27.034 127.829C27.4491 127.727 27.8654 127.625 28.282 127.523Z" fill="#171717"/>
<path fill-rule="evenodd" clip-rule="evenodd" d="M197.464 118.567C197.58 118.494 198.174 118.136 199.384 117.402C198.426 116.959 197.742 116.64 196.864 116.232C197.388 115.763 197.723 115.244 197.991 115.275C198.447 115.327 199.103 115.629 199.262 115.997C200.556 119.029 202.504 120.49 205.878 119.152C206.512 118.898 207.264 118.944 208.255 119.553C207.348 120.039 206.448 120.524 205.41 121.077C208.484 123.861 211.516 126.598 214.54 129.334C214.394 129.57 214.24 129.799 214.091 130.032C209.755 129.163 205.415 128.318 201.087 127.418C197.59 126.688 194.08 125.988 190.619 125.104C189.004 124.693 187.526 123.497 185.92 123.331C183.874 123.117 181.755 123.656 179.664 123.735C178.888 123.763 178.072 123.472 177.334 123.183C177.179 123.12 177.183 122.067 177.284 122.036C177.971 121.82 178.822 121.476 179.406 121.705C182.052 122.753 183.815 120.767 185.918 119.984C186.403 119.803 186.786 119.144 187.24 119.124C188.212 119.075 189.198 119.295 190.18 119.405C189.663 120.207 189.146 121.005 188.439 122.087C195.594 123.876 203.063 125.744 210.535 127.616C210.634 127.515 210.735 127.417 210.836 127.321C206.431 124.439 202.026 121.552 197.464 118.567Z" fill="#171717"/>
<path fill-rule="evenodd" clip-rule="evenodd" d="M156.016 180.548C156.204 180.52 156.392 180.485 156.576 180.452C156.3 179.383 156.274 178.139 155.683 177.284C155.034 176.341 153.866 175.753 152.923 175.009C152.375 176.073 151.399 177.125 151.368 178.203C151.302 180.631 151.672 183.073 151.928 185.509C152.102 187.16 152.08 188.932 152.723 190.4C153.148 191.371 154.596 191.893 155.59 192.612C156.131 191.643 157.176 190.652 157.131 189.715C156.972 186.648 156.415 183.605 156.016 180.548ZM149.476 184.752C149.422 181.58 149.108 178.384 149.454 175.259C149.564 174.248 151.436 172.66 152.444 172.703C153.98 172.768 156.523 173.759 156.79 174.815C158.106 180.092 159.11 185.496 159.619 190.908C159.856 193.445 157.678 195.032 155.015 195.203C152.364 195.367 151.247 193.805 150.992 191.335C150.763 189.117 150.424 186.915 150.134 184.705C149.914 184.723 149.698 184.736 149.476 184.752Z" fill="#171717"/>
<path fill-rule="evenodd" clip-rule="evenodd" d="M77.2069 190.553C78.7376 192.044 79.9389 194.164 81.0936 194.137C83.7349 194.073 83.6482 191.479 83.4682 189.536C83.2669 187.397 82.4789 184.865 79.8776 185.407C78.8083 185.631 78.2643 188.389 77.2069 190.553ZM78.9496 203.065C84.5842 201.82 84.5843 201.82 83.6416 197.163C81.4229 196.504 78.3549 196.48 77.6603 195.192C76.3123 192.683 75.7789 189.425 75.9549 186.537C76.0376 185.211 78.4256 183.316 80.0509 182.959C82.6682 182.38 84.4776 184.359 84.9322 186.896C85.7562 191.481 86.3669 196.115 86.8923 200.74C87.1736 203.232 85.6736 204.813 83.3723 205.308C81.6136 205.681 79.4669 206.132 78.9496 203.065Z" fill="#171717"/>
<path fill-rule="evenodd" clip-rule="evenodd" d="M46.7184 272.476C42.3929 269.379 38.0143 266.348 33.8153 263.09C33.3449 262.725 33.5168 260.727 34.0668 259.993C36.3767 256.933 38.8872 254.014 41.47 251.175C41.9397 250.655 43.0872 250.749 43.92 250.559C43.7471 251.439 43.8815 252.704 43.3487 253.124C40.0824 255.707 39.1433 258.49 40.5835 262.697C41.5939 265.649 44.1763 266.22 45.796 268.09C46.6205 269.047 47.3564 270.073 48.1293 271.071C47.6585 271.536 47.1872 272.008 46.7184 272.476Z" fill="#171717"/>
<path fill-rule="evenodd" clip-rule="evenodd" d="M63.0559 205.229C67.32 204.695 68.0034 204.115 67.6267 200.769C67.2048 197.024 66.5174 193.289 65.6247 189.631C65.4154 188.768 63.9231 188.215 63.02 187.521C62.3903 188.537 61.1543 189.605 61.2335 190.561C61.6424 195.389 62.3924 200.187 63.0559 205.229ZM68.8012 193.688C69.0603 196.885 69.707 200.123 69.4163 203.271C69.271 204.876 67.671 206.636 66.2512 207.677C65.707 208.072 63.3356 206.992 62.6476 205.996C58.772 200.4 58.7586 193.979 59.6111 187.595C59.9471 185.091 64.5991 184.28 66.0048 186.423C67.4054 188.56 68.257 191.053 69.3483 193.393C69.1643 193.489 68.983 193.587 68.8012 193.688Z" fill="#171717"/>
<path fill-rule="evenodd" clip-rule="evenodd" d="M105.568 187.635C105.263 186.273 105.216 184.964 104.652 183.947C104.25 183.22 103.006 182.341 102.39 182.505C101.51 182.735 100.171 183.912 100.23 184.583C100.639 189.065 101.259 193.539 102.086 197.972C102.24 198.812 103.628 199.427 104.448 200.148C105.047 199.117 106.14 198.085 106.148 197.049C106.174 193.861 105.786 190.675 105.568 187.635ZM108.366 191.221C108.064 194.321 108.003 197.475 107.324 200.493C107.115 201.42 105.164 202.619 104.114 202.529C102.823 202.413 100.774 201.264 100.556 200.24C99.423 194.845 98.5976 189.368 98.0283 183.876C97.839 182.024 98.8057 180.137 101.28 180.019C103.588 179.903 105.588 180.483 106.218 182.976C106.895 185.655 107.304 188.397 107.831 191.116C108.01 191.149 108.186 191.187 108.366 191.221Z" fill="#171717"/>
<path fill-rule="evenodd" clip-rule="evenodd" d="M134.902 186.94C134.94 186.933 134.982 186.928 135.016 186.927C135.332 189.332 135.456 191.785 136.064 194.113C136.284 194.948 137.686 195.469 138.543 196.132C139.152 195.153 140.338 194.137 140.282 193.2C140.035 189.119 139.554 185.044 138.854 181.016C138.694 180.119 137.311 179.431 136.49 178.649C135.728 179.659 134.464 180.605 134.328 181.691C134.119 183.392 134.671 185.185 134.902 186.94ZM132.698 188.676C132.59 185.579 132.294 182.467 132.498 179.395C132.56 178.488 133.96 177.116 134.904 176.965C136.223 176.763 138.762 177.243 138.92 177.884C140.282 183.44 141.45 189.071 142.158 194.745C142.379 196.48 141.004 198.231 138.428 198.037C136.055 197.867 134.294 197.263 133.939 194.625C133.666 192.639 133.412 190.643 133.148 188.651C132.998 188.659 132.848 188.667 132.698 188.676Z" fill="#171717"/>
<path fill-rule="evenodd" clip-rule="evenodd" d="M54.9341 109.924C54.7606 109.685 54.5877 109.448 54.4154 109.211C56.671 108.451 59.0138 106.872 61.1575 107.107C65.0794 107.533 68.8059 105.644 72.8123 106.681C73.667 106.904 75.551 106.028 76.947 106.787C77.7883 107.243 78.5123 107.916 79.287 108.489C79.139 108.739 78.9937 108.995 78.8457 109.247C74.3123 109.843 69.7763 110.44 65.2398 111.028C62.7518 111.353 60.2591 111.879 57.7679 111.869C56.8195 111.861 55.8778 110.612 54.9341 109.924Z" fill="#171717"/>
<path fill-rule="evenodd" clip-rule="evenodd" d="M117.906 235.339C119.639 238.167 118.896 245.761 116.918 248.295C116.04 246.629 115.202 245.04 114.362 243.441C114.09 243.459 113.815 243.472 113.542 243.487C113.115 245.308 112.688 247.131 112.258 248.979C110.144 247.643 106.944 239.581 108.019 237.357C108.978 239.155 109.791 240.681 110.848 242.655C111.451 240.359 111.898 238.661 112.344 236.968C112.614 236.903 112.886 236.836 113.155 236.772C114.135 238.469 115.112 240.176 116.339 242.301C116.894 239.832 117.35 237.805 117.906 235.339Z" fill="#171717"/>
<path fill-rule="evenodd" clip-rule="evenodd" d="M240.482 127.903C240.948 123.731 238.47 119.995 239.795 116.197C240.142 116.168 240.483 116.135 240.83 116.104C241.426 120.644 242.022 125.181 242.668 130.105C234.526 131.173 226.308 132.249 218.102 133.329C217.879 133.164 217.656 133.004 217.44 132.835C218.326 132.087 219.146 130.788 220.108 130.677C225.618 130.041 231.167 129.752 236.692 129.195C237.963 129.071 239.174 128.365 240.482 127.903Z" fill="#171717"/>
<path fill-rule="evenodd" clip-rule="evenodd" d="M189.234 238.149C188.239 236.485 187.248 234.815 185.896 232.54C185.376 235.181 185.014 237.044 184.651 238.901C184.287 238.959 183.919 239.019 183.551 239.077C182.031 235.403 180.51 231.736 178.988 228.059C179.282 227.9 179.576 227.741 179.868 227.58C180.907 229.14 181.944 230.697 182.984 232.256C183.215 232.209 183.44 232.156 183.668 232.107C183.746 230.521 183.823 228.937 183.902 227.232C187.747 226.289 186.403 230.831 189.042 231.748C189.254 229.859 189.448 228.092 189.644 226.323C189.992 226.351 190.34 226.381 190.69 226.411C192.856 230.397 188.316 234.024 190.156 237.991C189.85 238.045 189.538 238.099 189.234 238.149Z" fill="#171717"/>
<path fill-rule="evenodd" clip-rule="evenodd" d="M187.406 168.135C190.279 172.959 186.234 178.303 189.087 182.991C189.436 183.023 189.779 183.055 190.124 183.087C190.432 181.083 190.739 179.085 191.134 176.516C192.446 179.327 193.478 181.547 194.604 183.965C194.196 185.471 193.67 187.431 192.902 190.261C191.948 188.081 191.284 186.573 190.644 185.101C186.335 185.547 185.4 184.429 186.015 180.207C186.599 176.201 186.955 172.16 187.406 168.135Z" fill="#171717"/>
<path fill-rule="evenodd" clip-rule="evenodd" d="M40.7585 259.216C45.6887 258.567 50.6184 257.903 55.5543 257.292C56.4096 257.185 57.4053 257.044 58.1329 257.372C58.9007 257.725 59.4231 258.618 60.0528 259.276C59.4413 259.811 58.8564 260.761 58.2127 260.805C55.4507 260.979 52.6689 260.883 49.8933 260.887C49.5763 260.892 49.1392 260.805 48.9539 260.976C45.9829 263.683 43.4209 262.144 40.7585 259.216Z" fill="#171717"/>
<path fill-rule="evenodd" clip-rule="evenodd" d="M207.044 187.345C207.792 180.656 208.55 173.963 209.428 166.164C206.906 167.379 205.259 168.172 203.367 169.076C203.304 168.587 202.907 166.759 203.078 166.7C205.622 165.887 208.239 165.308 211.739 164.449C210.048 172.736 210.93 180.381 208.451 187.515C207.983 187.459 207.514 187.403 207.044 187.345Z" fill="#171717"/>
<path fill-rule="evenodd" clip-rule="evenodd" d="M140.486 238.8C140.499 236.701 140.506 235.207 140.515 233.716C143.258 237.067 142.52 241.087 142.388 245.296C140.98 243.625 139.576 241.953 137.956 240.029C137.674 242.104 137.435 243.84 137.2 245.573C136.915 245.567 136.623 245.567 136.338 245.561C135.831 241.691 135.322 237.82 134.68 232.929C136.858 235.131 138.416 236.711 140.486 238.8Z" fill="#171717"/>
<path fill-rule="evenodd" clip-rule="evenodd" d="M116.459 181.092C113.902 180.157 112.042 180.271 110.756 183.267C110.402 182.257 109.558 181.075 109.832 180.279C110.091 179.521 111.459 178.948 112.444 178.685C113.606 178.383 114.986 178.173 116.071 178.531C116.978 178.831 118.31 180.081 118.234 180.779C117.523 187.284 116.555 193.763 115.639 200.243C115.619 200.381 115.312 200.473 114.036 201.308C114.904 194.076 115.674 187.656 116.459 181.092Z" fill="#171717"/>
<path fill-rule="evenodd" clip-rule="evenodd" d="M217.898 111.785C217.008 109.58 218.8 109.467 219.978 109.559C223.575 109.851 225.684 108.039 227.134 105.065C228.73 101.773 231.052 99.8054 235.431 100.899C235.194 103.311 234.939 105.805 234.691 108.3C234.25 108.265 233.808 108.236 233.368 108.204C233.3 106.344 233.235 104.483 233.166 102.625C232.88 102.403 232.592 102.184 232.304 101.963C230.872 103.44 228.619 104.689 228.163 106.413C226.599 112.319 222.408 112.172 217.844 111.711L217.898 111.785Z" fill="#171717"/>
<path fill-rule="evenodd" clip-rule="evenodd" d="M230.788 232.849C227.77 229.739 225.706 230.124 223.524 233.76C223.202 233.728 222.874 233.693 222.547 233.663C223.218 229.548 223.883 225.439 224.567 221.253C227.188 222.547 230.24 228.144 230.788 232.849Z" fill="#171717"/>
<path fill-rule="evenodd" clip-rule="evenodd" d="M233.198 113.231C235.104 114.884 235.084 116.157 233.031 116.832C231.39 117.367 229.594 117.456 227.858 117.676C222.07 118.388 216.276 119.075 210.48 119.736C210.151 119.771 209.782 119.476 209.362 118.46C212.494 117.831 215.603 117.008 218.767 116.613C223.047 116.079 227.378 115.939 231.666 115.452C232.167 115.395 232.544 114.225 233.198 113.231Z" fill="#171717"/>
<path fill-rule="evenodd" clip-rule="evenodd" d="M181.723 246.108C181.686 248.704 181.598 250.688 181.663 252.669C181.686 253.225 182.023 253.926 182.455 254.271C182.739 254.493 183.724 254.366 183.895 254.087C184.247 253.509 184.504 252.684 184.39 252.037C184.044 250.139 183.499 248.272 182.94 246.037C182.676 246.052 181.872 246.096 181.723 246.108ZM180.358 252.814C180.074 251.255 179.61 249.704 179.559 248.137C179.519 246.911 179.632 245.359 180.347 244.532C180.83 243.971 182.808 243.983 183.527 244.52C184.507 245.264 185.072 246.693 185.539 247.936C185.907 248.909 185.984 250.045 185.962 251.103C185.934 252.457 185.876 253.883 185.4 255.112C185.244 255.517 183.646 255.738 182.91 255.473C181.748 255.055 180.758 254.152 179.694 253.456C179.915 253.242 180.136 253.026 180.358 252.814Z" fill="#171717"/>
<path fill-rule="evenodd" clip-rule="evenodd" d="M200.016 107.395C199.382 108.575 198.742 109.751 198.159 110.832C199.276 111.011 200.772 111.244 202.268 111.48C202.348 111.768 202.43 112.057 202.511 112.345C201.687 112.903 200.864 113.935 200.047 113.925C196.492 113.903 192.943 113.576 188.991 113.339C192.275 110.44 195.716 108.14 200.091 107.471L200.016 107.395Z" fill="#171717"/>
<path fill-rule="evenodd" clip-rule="evenodd" d="M218.34 222.54C218.847 226.372 219.351 230.211 219.852 234.047C219.615 234.105 219.379 234.168 219.143 234.221C218.695 232.625 218.246 231.024 217.688 229.047C216.5 229.523 215.234 230.023 214.035 230.504C214.124 232.156 214.202 233.577 214.28 235.009C213.942 235.043 213.606 235.081 213.272 235.116C212.762 231.265 212.258 227.416 211.754 223.568C211.944 223.455 212.143 223.341 212.332 223.231C212.708 224.033 213.416 224.844 213.399 225.632C213.346 227.497 214.187 228.287 215.764 227.645C216.492 227.348 216.963 226.069 217.242 225.141C217.458 224.412 217.198 223.54 217.152 222.729C217.547 222.668 217.946 222.604 218.34 222.54Z" fill="#171717"/>
<path fill-rule="evenodd" clip-rule="evenodd" d="M200.672 226.107C199.192 226.431 197.704 226.751 196.019 227.121C196.142 229.736 196.268 232.459 196.4 235.335C197.946 235.552 199.744 235.816 201.542 236.072C201.587 236.211 201.624 236.352 201.671 236.487C199.732 236.981 197.79 237.468 195.764 237.983C195.094 235.009 194.499 232.577 194.008 230.117C193.035 225.231 195.263 223.555 200.672 226.107Z" fill="#171717"/>
<path fill-rule="evenodd" clip-rule="evenodd" d="M200.091 107.471C200.791 106.098 207.596 101.907 208.304 102.607C208.888 103.184 208.972 104.715 208.688 105.639C208.082 107.622 207.208 109.544 206.196 111.353C205.78 112.08 204.704 112.439 203.931 112.963C203.61 112.736 203.284 112.507 202.967 112.28C203.536 110.637 204.103 108.995 204.787 107.032C203.314 107.144 201.668 107.278 200.019 107.403C200.016 107.395 200.091 107.471 200.091 107.471Z" fill="#171717"/>
<path fill-rule="evenodd" clip-rule="evenodd" d="M160.323 253.196C155.939 254.041 157.196 257.219 157.388 259.988C155.039 258.542 154.188 254.445 154.631 248.015C156.783 247.736 158.915 247.453 161.054 247.173C161.118 247.561 161.186 247.952 161.252 248.336C159.526 248.719 157.799 249.099 156.068 249.479C155.951 249.821 155.828 250.168 155.707 250.512C157.099 251.323 158.49 252.135 160.323 253.196Z" fill="#171717"/>
<path fill-rule="evenodd" clip-rule="evenodd" d="M132.36 235.443C130.6 235.905 128.838 236.369 127.178 236.803C127.555 239.675 127.888 242.229 128.218 244.733C130.168 244.744 131.84 244.751 133.508 244.756C133.552 245.215 133.598 245.675 133.642 246.131C131.826 246.368 130.004 246.812 128.206 246.721C127.654 246.692 126.968 245.249 126.715 244.352C126.286 242.841 126.05 241.251 125.927 239.681C125.802 238.099 125.388 235.411 126.016 235.103C127.803 234.244 130.058 234.355 132.13 234.087C132.204 234.537 132.282 234.988 132.36 235.443Z" fill="#171717"/>
<path fill-rule="evenodd" clip-rule="evenodd" d="M166.998 232.736C165.799 232.472 164.595 232.204 163.396 231.94C163.172 233.711 162.72 235.488 162.807 237.243C162.844 238.176 164.022 239.895 164.324 239.82C165.52 239.519 166.578 238.653 168.098 237.747C168.062 238.551 168.396 240.073 167.892 240.435C166.93 241.125 164.999 241.807 164.352 241.325C162.99 240.292 161.57 238.604 161.315 237.003C160.974 234.881 159.511 232.189 162.198 230.412C163.011 229.873 164.343 229.236 165.004 229.551C166.146 230.1 166.944 231.355 167.887 232.319C167.591 232.459 167.295 232.597 166.998 232.736Z" fill="#171717"/>
<path fill-rule="evenodd" clip-rule="evenodd" d="M189.606 248.004C192.515 247.151 192.515 247.151 190.571 243.312C193.471 243.484 195.7 248.124 194.775 252.553C194.59 253.429 193.442 254.104 192.654 254.964C192.651 252.762 192.65 251.313 192.65 249.859C191.636 250.272 190.622 250.683 189.159 251.275C188.847 248.897 188.482 246.101 188.112 243.304C188.4 243.257 188.686 243.213 188.972 243.164C189.172 244.681 189.368 246.199 189.606 248.004Z" fill="#171717"/>
<path fill-rule="evenodd" clip-rule="evenodd" d="M152.396 241.656C154.523 241.225 155.947 240.94 158.47 240.432C156.694 239.036 155.591 238.209 154.535 237.323C153.492 236.452 151.899 235.66 151.655 234.579C151.434 233.6 152.472 231.576 153.37 231.28C154.698 230.845 156.399 231.524 157.94 231.732C157.91 232.131 157.886 232.54 157.856 232.947C156.382 233.14 154.914 233.336 153.439 233.527C153.322 233.809 153.203 234.089 153.087 234.369C154.023 235.144 154.848 236.249 155.923 236.615C158.286 237.421 159.994 238.632 158.552 241.16C157.374 243.232 155.318 243.879 152.396 241.656Z" fill="#171717"/>
<path fill-rule="evenodd" clip-rule="evenodd" d="M176.34 255.697C176.214 253.811 176.264 251.895 175.89 250.06C175.68 249.037 174.764 248.159 174.167 247.215C173.636 248.348 172.567 249.543 172.687 250.595C172.93 252.657 173.834 254.647 174.631 257.197C172.774 256.441 171.446 255.361 171.326 253.026C171.27 251.819 171.083 250.572 171.308 249.413C171.599 247.936 172.246 246.531 172.735 245.092C174.104 245.884 176.39 246.44 176.668 247.509C177.331 250.097 178.822 252.956 176.34 255.697Z" fill="#171717"/>
<path fill-rule="evenodd" clip-rule="evenodd" d="M177.043 115.253C171.916 115.505 166.796 115.76 161.674 116.013C163.33 113.563 175.224 113.004 177.043 115.253Z" fill="#171717"/>
<path fill-rule="evenodd" clip-rule="evenodd" d="M171.448 241.277C170.923 237.255 170.391 233.233 169.863 229.215C170.158 229.092 170.451 228.969 170.744 228.848C171.239 230.065 171.479 231.504 172.296 232.427C173.083 233.311 174.472 233.669 175.527 234.221C174.234 235.176 172.579 235.779 172.175 236.853C171.73 238.057 172.408 239.683 172.599 241.125C172.216 241.179 171.83 241.225 171.448 241.277Z" fill="#171717"/>
<path fill-rule="evenodd" clip-rule="evenodd" d="M186.074 102.315C181.678 102.892 177.284 103.471 172.75 104.067C173.698 101.812 180.515 100.748 186.074 102.315Z" fill="#171717"/>
<path fill-rule="evenodd" clip-rule="evenodd" d="M15.622 136.748C10.8981 137.983 10.6976 137.848 9.67358 133.064C10.9887 132.752 12.9679 131.736 13.5569 132.269C14.658 133.257 14.9558 135.144 15.622 136.748Z" fill="#171717"/>
<path fill-rule="evenodd" clip-rule="evenodd" d="M160.815 115.508C161.951 117.728 160.526 119.248 158.719 120.379C156.672 121.661 154.448 122.656 151.924 123.977C151.11 122.227 152.498 120.939 154.131 119.825C156.222 118.404 158.372 117.079 160.815 115.508Z" fill="#171717"/>
<path fill-rule="evenodd" clip-rule="evenodd" d="M39.06 127.021C37.2381 127.26 36.0246 127.421 34.7824 127.584C34.2397 126.409 33.6653 125.173 32.746 123.187C34.6648 122.939 36.6392 122.08 37.7876 122.717C38.7252 123.233 38.6788 125.533 39.06 127.021Z" fill="#171717"/>
<path fill-rule="evenodd" clip-rule="evenodd" d="M238.092 97.7001C238.863 103.573 239.634 109.451 240.428 115.499C238.555 114.225 236.468 100.728 238.092 97.7001Z" fill="#171717"/>
<path fill-rule="evenodd" clip-rule="evenodd" d="M215.262 96.0746C220.055 95.9666 223.818 95.8799 227.584 95.7986C227.614 96.3279 227.639 96.8559 227.666 97.3879C224.147 97.8479 220.636 98.4039 217.1 98.6626C216.63 98.6932 216.047 97.2226 215.262 96.0746Z" fill="#171717"/>
<path fill-rule="evenodd" clip-rule="evenodd" d="M171.978 103.972C167.947 104.5 163.924 105.029 159.898 105.556C159.836 105.133 159.779 104.704 159.716 104.283C163.719 103.756 167.726 103.233 171.73 102.704C171.808 103.127 171.892 103.551 171.978 103.972Z" fill="#171717"/>
<path fill-rule="evenodd" clip-rule="evenodd" d="M19.8174 129.231C18.8007 129.365 17.7726 129.5 16.108 129.719C16.0324 127.668 15.9611 125.648 15.8882 123.573C20.395 124.143 20.8043 124.777 19.8174 129.231Z" fill="#171717"/>
<path fill-rule="evenodd" clip-rule="evenodd" d="M42.7944 138.88C43.5684 138.128 44.333 137.395 45.8048 135.973C46.9086 138.015 47.8742 139.795 49.0158 141.904C46.8611 142.185 45.6924 142.343 44.4706 142.5C43.9064 141.283 43.3742 140.133 42.7944 138.88Z" fill="#171717"/>
<path fill-rule="evenodd" clip-rule="evenodd" d="M29.9706 154.636C28.4081 156.191 27.4731 157.116 26.5387 158.044C25.6471 157.037 24.2122 156.116 24.0414 155C23.9154 154.195 25.3163 152.652 26.3154 152.341C27.0117 152.129 28.181 153.455 29.9706 154.636Z" fill="#171717"/>
<path fill-rule="evenodd" clip-rule="evenodd" d="M166.995 125.767C162.891 125.903 158.786 126.037 154.68 126.173C154.596 125.736 154.511 125.297 154.426 124.859C155.406 124.544 156.376 123.989 157.368 123.956C160.643 123.836 163.924 123.907 167.202 123.907C167.135 124.527 167.063 125.149 166.995 125.767Z" fill="#171717"/>
<path fill-rule="evenodd" clip-rule="evenodd" d="M38.5669 152.975C38.4778 153.981 38.3726 155.164 38.2565 156.479C37.1877 156.621 36.1247 156.76 34.443 156.981C34.1606 155.461 33.0903 153.249 33.7497 152.433C34.8674 151.048 37.0581 150.688 38.5669 152.975Z" fill="#171717"/>
<path fill-rule="evenodd" clip-rule="evenodd" d="M205.742 235.485C203.664 233.644 202.119 226.884 203.299 225.237C203.787 224.556 205.038 223.881 205.774 224.033C207.162 224.312 208.43 225.191 210.174 226.031C209.2 226.656 209.011 226.887 208.847 226.868C207.555 226.716 206.272 226.515 204.986 226.337C204.848 227.909 204.53 229.489 204.63 231.052C204.72 232.408 205.282 233.736 205.742 235.485Z" fill="#171717"/>
<path fill-rule="evenodd" clip-rule="evenodd" d="M42.2585 144.567C43.7334 145.581 44.7132 146.259 45.7048 146.939C45.5766 148.199 45.4574 149.375 45.2225 151.701C43.3872 150.395 41.6548 149.672 40.8533 148.376C40.4392 147.707 41.6788 146.012 42.2585 144.567Z" fill="#171717"/>
<path fill-rule="evenodd" clip-rule="evenodd" d="M39.7069 129.832C40.8137 129.179 41.7746 128.603 42.7361 128.035C43.8429 128.656 44.949 129.276 46.0714 129.911C45.7522 131.024 45.4334 132.141 45.1262 133.211C44.1157 133.345 43.0845 133.479 42.0517 133.613C41.3048 132.407 40.4897 131.093 39.7069 129.832Z" fill="#171717"/>
<path fill-rule="evenodd" clip-rule="evenodd" d="M17.2267 148.348C20.3575 149.097 20.8695 150.983 19.593 154.212C17.9034 153.38 16.2543 152.573 14.2133 151.569C15.6143 150.071 16.4086 149.225 17.2267 148.348Z" fill="#171717"/>
<path fill-rule="evenodd" clip-rule="evenodd" d="M122.51 235.696C123.02 239.581 123.531 243.472 124.031 247.281C122.411 246.508 120.903 238.732 122.51 235.696Z" fill="#171717"/>
<path fill-rule="evenodd" clip-rule="evenodd" d="M26.7772 119.737C27.6648 121.459 28.5517 123.181 29.5938 125.196C27.5372 125.467 26.3632 125.623 24.2042 125.905C24.5194 123.699 24.7892 121.813 25.0569 119.931C25.6298 119.865 26.2038 119.803 26.7772 119.737Z" fill="#171717"/>
<path fill-rule="evenodd" clip-rule="evenodd" d="M9.88757 143.392C10.7512 142.667 11.6298 141.924 12.484 141.208C13.7433 141.843 14.8709 142.412 16.0074 142.985C12.3954 146.977 12.3954 146.977 9.88757 143.392Z" fill="#171717"/>
<path fill-rule="evenodd" clip-rule="evenodd" d="M199.199 99.6654C198.928 100.105 198.714 100.869 198.363 100.941C195.602 101.493 192.822 101.952 190.032 102.341C189.623 102.401 188.878 102.029 188.766 101.696C188.644 101.324 189.09 100.344 189.236 100.357C192.618 100.623 195.854 98.3668 199.287 99.7414L199.199 99.6654Z" fill="#171717"/>
<path fill-rule="evenodd" clip-rule="evenodd" d="M176.271 124.029C173.566 124.384 170.867 124.739 167.882 125.131C168.004 124.199 168.103 122.907 168.187 122.905C170.867 122.945 173.67 121.12 176.244 122.989C176.252 123.333 176.259 123.68 176.271 124.029Z" fill="#171717"/>
<path fill-rule="evenodd" clip-rule="evenodd" d="M146.15 105.732C149.698 105.565 153.247 105.4 156.792 105.236C156.812 105.656 156.831 106.075 156.847 106.5C153.268 107.224 149.692 107.943 146.075 107.093C146.102 106.639 146.126 106.181 146.15 105.732Z" fill="#171717"/>
<path fill-rule="evenodd" clip-rule="evenodd" d="M233.352 222.608C233.732 224.184 234.104 225.719 234.475 227.252C234.316 227.305 234.163 227.356 234.007 227.411C232.883 225.249 231.758 223.093 230.558 220.785C231.199 220.66 232.308 220.38 233.44 220.268C234.158 220.196 234.91 220.376 235.65 220.441C235.135 220.949 234.628 221.463 234.107 221.965C233.876 222.185 233.622 222.38 233.352 222.608Z" fill="#171717"/>
<path fill-rule="evenodd" clip-rule="evenodd" d="M217.844 111.711C214.526 111.928 211.21 112.143 207.892 112.359C211.556 109.54 215.027 109.529 217.89 111.781C217.898 111.785 217.844 111.711 217.844 111.711Z" fill="#171717"/>
<path fill-rule="evenodd" clip-rule="evenodd" d="M206.53 97.8041C209.22 97.6094 211.648 97.4401 214.084 97.2667C209.075 100.08 207.643 100.051 206.53 97.8041Z" fill="#171717"/>
<path fill-rule="evenodd" clip-rule="evenodd" d="M199.287 99.7413C201.151 97.352 203.647 98.6493 206.236 98.1573C204.387 100.736 201.815 101.143 199.199 99.6653L199.287 99.7413Z" fill="#171717"/>
<path fill-rule="evenodd" clip-rule="evenodd" d="M178.68 113.084C180.803 113.563 183.342 110.957 185.406 114.409C182.886 114.451 180.686 114.48 178.492 114.507C178.555 114.031 178.618 113.557 178.68 113.084Z" fill="#171717"/>
<path d="M128.931 64.6934C128.871 64.6961 128.81 64.6934 128.748 64.6934C128.559 64.6841 128.368 64.6654 128.182 64.6574C127.234 64.5947 126.283 64.4747 125.422 64.3267C124.62 64.1961 123.895 64.0227 123.308 63.848C123.027 63.1627 122.799 61.9867 122.842 61.0134C122.868 60.4294 122.99 59.9174 123.259 59.6267C124.122 59.5787 125.008 59.5334 125.899 59.4814C126.812 59.452 127.732 59.4307 128.618 59.4681C128.742 59.4761 128.854 59.4787 128.978 59.4947C130.454 59.5867 131.855 59.8587 133.036 60.4854C133.147 60.5414 133.266 60.6027 133.376 60.6747C133.459 60.7241 133.547 60.7827 133.635 60.8387C133.8 61.6134 134.011 62.2934 133.972 63.0267C133.959 63.3614 133.887 63.6974 133.736 64.0667C132.63 64.6094 130.812 64.7721 128.931 64.6934ZM133.346 67.2854C134.964 66.1601 136.754 65.8921 137.219 63.9921C137.228 63.9467 137.247 63.8961 137.256 63.8521C137.352 63.4174 137.411 63.0014 137.426 62.6147C137.628 58.332 132.975 57.1681 128.068 56.8627C127.803 56.8467 127.54 56.8361 127.274 56.8201C127.227 56.8147 127.182 56.8147 127.135 56.8094C126.355 56.7814 125.574 56.7641 124.814 56.7547C124.19 56.7574 123.575 56.7547 122.99 56.7547C121.674 56.7547 120.459 56.7614 119.494 56.716C119.38 56.7134 119.263 56.7094 119.16 56.7067C120.175 61.8227 119.371 68.1587 120.363 74.152C121.6 74.2134 122.84 74.2627 124.083 74.3241C123.707 73.2067 123.25 70.2001 123.118 68.0681C123.142 68.0001 123.16 67.9281 123.198 67.8707C123.514 67.1534 124.315 66.9387 125.284 66.912C125.528 66.912 125.779 66.9121 126.035 66.9294C126.116 66.9321 126.195 66.9321 126.278 66.9361C126.52 66.9561 126.76 66.9734 127.007 66.9854C127.247 67.0027 127.49 67.0227 127.727 67.0427C127.807 67.0427 127.883 67.0467 127.956 67.0494C128.102 67.06 128.239 67.0667 128.384 67.0614C128.908 67.3761 129.371 67.7787 129.783 68.2334C129.911 68.3774 130.035 68.5334 130.156 68.6814C132.1 71.1094 133.17 74.6321 136.582 74.9241C136.651 74.9241 136.73 74.9321 136.796 74.9387C136.832 74.9387 136.862 74.9414 136.9 74.9321C137.124 74.9467 137.35 74.9414 137.586 74.916C137.634 74.916 137.678 74.9094 137.726 74.9014C137.928 74.8894 138.144 74.8427 138.36 74.8014C138.483 74.7854 138.598 74.7601 138.72 74.7254C136.96 72.2134 134.659 70.2067 133.346 67.2854Z" fill="#171717"/>
<path d="M141.222 24.116C141.107 24.112 140.986 24.104 140.871 24.104C140.507 24.0894 140.168 24.0774 139.862 24.0694C139.511 24.0614 139.222 24.0614 139.019 24.052C139.079 30.8067 139.619 37.4787 139.567 44.9467C139.832 45.0027 140.098 45.048 140.359 45.1027C140.555 45.132 140.754 45.164 140.94 45.184C141.394 45.252 141.84 45.3027 142.282 45.332C142.408 45.344 142.532 45.348 142.658 45.352C142.794 45.36 142.932 45.36 143.076 45.368C143.159 45.372 143.234 45.368 143.32 45.368C143.768 45.3694 144.216 45.34 144.655 45.292C144.859 45.272 145.063 45.24 145.274 45.2094C144.918 39.4894 144.359 30.7 144.455 24.5507C143.708 24.28 142.396 24.1707 141.222 24.116Z" fill="#171717"/>
<path d="M154.854 30.9226C154.88 30.2626 155.002 29.5813 155.195 29.0093C155.926 28.9693 156.774 28.9039 157.674 28.8613C157.951 28.8546 158.244 28.8359 158.532 28.8333C159.174 28.8159 159.827 28.8159 160.472 28.8492C160.619 28.8519 160.782 28.8586 160.931 28.8719C163.252 29.0346 165.44 29.6172 166.52 31.2586C166.03 32.0132 165.815 33.0786 165.171 33.6812C164.004 33.7146 162.81 33.7719 161.622 33.8093C160.962 33.8213 160.3 33.8359 159.654 33.8266C159.396 33.8212 159.138 33.8119 158.888 33.8026C158.804 33.8026 158.718 33.7919 158.643 33.7892C158.4 33.7786 158.166 33.7613 157.93 33.7373C156.986 33.6533 156.088 33.4973 155.247 33.2359C154.94 32.6546 154.816 31.7906 154.854 30.9226ZM155.298 37.7079C155.467 37.6493 155.628 37.5946 155.795 37.5546C156.214 37.4306 156.62 37.3653 157.003 37.3399C157.04 37.3386 157.083 37.3359 157.13 37.3359C157.214 37.3279 157.3 37.3279 157.379 37.3252C157.427 37.3279 157.463 37.3279 157.511 37.3359C157.568 37.3386 157.631 37.3386 157.692 37.3519C161.063 37.6399 162.606 41.6839 164.008 44.8026C164.208 45.2573 164.41 45.6812 164.611 46.0786C165.424 45.9852 166.132 45.9733 166.79 46.0066C167.475 46.0319 168.103 46.1079 168.751 46.1746C169.4 46.2626 170.068 46.3386 170.827 46.3733C171.064 46.3826 171.307 46.3932 171.562 46.3932C170.231 43.3212 167.54 41.5012 166.459 38.2146C167.692 36.9639 169.487 37.1346 170.547 35.6679C171.118 34.8799 171.416 33.8173 171.482 32.7093C171.566 31.2839 171.252 29.7773 170.611 28.7053C170.512 28.5399 170.398 28.3786 170.283 28.2226C170.219 28.1386 170.146 28.0506 170.074 27.9626C168.288 25.8893 165.007 25.1612 161.331 24.9252C161.058 24.9106 160.784 24.8919 160.504 24.8812C160.392 24.8786 160.284 24.8719 160.172 24.8719C159.484 24.8439 158.806 24.8279 158.116 24.8252C157.071 24.8172 156.031 24.8279 155.002 24.8426C154.22 24.8466 153.444 24.8533 152.688 24.8639C151.828 24.8613 150.986 24.8532 150.192 24.8252C150.09 24.8172 149.987 24.8106 149.891 24.8106C149.85 24.8053 149.812 24.8053 149.766 24.7999C149.682 24.7973 149.606 24.7959 149.522 24.7892C149.32 24.7799 149.12 24.7692 148.924 24.7479C150.148 30.6532 149.571 38.2532 149.984 45.4172C150.491 45.5332 150.943 45.6079 151.366 45.6559C151.53 45.6732 151.699 45.6853 151.867 45.6999C151.95 45.7039 152.034 45.7093 152.107 45.7106C153.33 45.7639 154.415 45.6412 155.934 45.6852C155.842 43.8479 155.2 40.5133 155.298 37.7079Z" fill="#171717"/>
<path d="M123.063 36.5787C122.946 36.5761 122.827 36.5694 122.711 36.5614C121.546 36.4707 120.495 36.1814 120.059 35.5028C119.986 35.3854 119.928 35.2601 119.886 35.1214C120.94 32.8787 120.962 29.5374 122.926 28.3054C124.783 30.1281 126.186 33.5254 126.035 36.3947C125.316 36.5147 124.279 36.6147 123.266 36.5867C123.198 36.5867 123.13 36.5814 123.063 36.5787ZM123.434 39.3254C123.535 39.3321 123.654 39.3374 123.766 39.3401C125.442 39.4361 127.124 39.7054 127.862 40.2014C129.51 41.3321 128.776 43.4028 129.652 44.5041C129.999 44.5041 130.367 44.5174 130.735 44.5414C130.91 44.5454 131.087 44.5507 131.259 44.5627C131.442 44.5654 131.618 44.5841 131.79 44.5867C132.146 44.6134 132.504 44.6401 132.844 44.6681C133.498 44.7041 134.126 44.7481 134.695 44.7721C135.216 44.7974 135.69 44.8094 136.094 44.7921C133.032 37.6134 129.679 30.6894 126.876 23.2627C126.57 23.3361 126.24 23.3761 125.907 23.4028C125.395 23.4441 124.868 23.4441 124.339 23.4214C124.278 23.4214 124.215 23.4134 124.156 23.4134C124.116 23.4134 124.08 23.4108 124.042 23.4094C123.64 23.3974 123.238 23.3654 122.846 23.3294C122.648 23.3134 122.459 23.2921 122.27 23.2748C121.655 23.2241 121.079 23.1721 120.57 23.1454C120.518 23.1427 120.466 23.1428 120.414 23.1374C120.254 23.1348 120.1 23.1321 119.956 23.1321C119.767 23.1427 119.588 23.1521 119.43 23.1721C117.174 30.0761 114.699 36.7361 112.294 43.4801C112.444 43.5854 112.615 43.6534 112.8 43.7241C112.988 43.7761 113.194 43.8188 113.411 43.8428C113.556 43.8628 113.715 43.8747 113.868 43.8801C114.298 43.9027 114.772 43.8828 115.251 43.8748C115.436 43.8708 115.624 43.8627 115.816 43.8627C116.116 43.8627 116.438 43.8628 116.754 43.8748C116.84 43.8828 116.932 43.8827 117.012 43.8907C117.258 43.9094 117.508 43.9387 117.747 43.9654C117.731 43.6441 117.724 43.3187 117.739 42.9894C117.796 41.5734 118.211 40.1721 119.436 39.5721C119.578 39.5041 119.844 39.4507 120.2 39.3987C120.908 39.3134 121.964 39.2734 123.088 39.3134C123.202 39.3147 123.318 39.3227 123.434 39.3254Z" fill="#171717"/>
<path d="M84.9362 63.3068C84.8109 63.3081 84.6856 63.3014 84.5616 63.2934C84.4842 63.2934 84.4096 63.2881 84.3349 63.2828C83.2016 63.2201 82.0749 63.0908 81.1149 62.9494C80.3962 62.1268 80.1669 60.8614 80.2456 59.3228C80.2576 59.0334 80.2856 58.7361 80.3176 58.4374C80.3509 58.4081 80.3869 58.3774 80.4256 58.3481C81.4816 57.5094 82.8856 57.2521 84.3962 57.3081C84.4469 57.3054 84.4936 57.3081 84.5456 57.3134C84.7842 57.3241 85.0242 57.3361 85.2642 57.3601C85.9336 57.4254 86.6069 57.5441 87.2749 57.6694C88.3082 57.8881 89.3296 58.1467 90.2642 58.3801C90.2909 58.4441 90.3189 58.4961 90.3456 58.5481C90.4069 58.6561 90.4576 58.7548 90.5082 58.8681C90.5269 58.9054 90.5402 58.9401 90.5549 58.9681C90.6029 59.0748 90.6416 59.1761 90.6842 59.2774C90.7376 59.4161 90.7829 59.5454 90.8202 59.6868C91.7269 62.7588 88.3962 63.4094 84.9362 63.3068ZM94.1709 60.8054C94.3776 56.3668 90.3096 55.2961 85.8896 54.9948C85.5776 54.9721 85.2669 54.9601 84.9536 54.9441C84.9269 54.9441 84.8949 54.9441 84.8629 54.9441C84.4056 54.9201 83.9416 54.9001 83.4856 54.9054C83.0016 54.8801 82.5176 54.8801 82.0416 54.8721C81.1136 54.8601 80.2216 54.8521 79.3989 54.8161C79.3989 54.8161 79.3989 54.8161 79.3962 54.8161C78.4896 54.7748 77.6789 54.6961 77.0176 54.5641C77.0002 54.8521 76.9842 55.1294 76.9709 55.4214C76.7576 60.5588 77.5656 65.8148 77.3549 70.4428C77.3256 71.0454 77.2869 71.6294 77.2162 72.2134C77.3496 72.2267 77.4842 72.2281 77.6082 72.2414C78.2376 72.2934 78.7856 72.3508 79.2949 72.4028C79.3456 72.4028 79.3962 72.4134 79.4496 72.4188C79.5936 72.4308 79.7402 72.4388 79.8882 72.4481C79.9456 72.4521 80.0002 72.4521 80.0576 72.4521C80.2669 72.4521 80.4776 72.4521 80.6802 72.4414C80.8442 72.4334 81.0136 72.4121 81.1816 72.3934C80.8922 70.5054 80.3802 68.8841 80.4762 66.1428C84.9189 64.9401 93.2776 67.3908 94.1002 61.5348C94.1122 61.4588 94.1216 61.3708 94.1322 61.2828C94.1509 61.1281 94.1629 60.9654 94.1709 60.8054Z" fill="#171717"/>
<path d="M238.524 49.1573C238.864 49.3186 239.24 49.4279 239.63 49.5239C240.158 49.6546 240.726 49.7359 241.31 49.7853C241.452 49.7893 241.595 49.8013 241.75 49.8106C242.476 49.8453 243.214 49.8279 243.931 49.7679C244.188 49.7386 244.452 49.7199 244.702 49.6879C243.47 43.6746 243.598 35.1933 243.402 29.0066C242.983 28.8333 242.48 28.7479 241.938 28.7226C241.704 28.7133 241.459 28.7159 241.216 28.7226C240.971 28.7306 240.72 28.7479 240.478 28.7693C239.651 28.8413 238.839 28.9626 238.183 29.0173C238.22 35.3186 238.864 42.1172 238.552 48.5453C238.543 48.7519 238.534 48.9586 238.524 49.1573Z" fill="#171717"/>
<path d="M71.8243 37.4306C71.7883 37.4413 71.751 37.4479 71.715 37.4586C71.6937 37.4759 71.667 37.4826 71.6443 37.4933C71.631 37.4879 71.6177 37.4973 71.599 37.5026C71.583 37.5106 71.5577 37.5146 71.5363 37.5226C71.5203 37.5199 71.5057 37.5266 71.4857 37.5319C71.4643 37.5413 71.4457 37.5412 71.4257 37.5466C71.4043 37.5546 71.3843 37.5586 71.3683 37.5693C71.3497 37.5693 71.331 37.5746 71.315 37.5693C71.295 37.5773 71.2657 37.5852 71.2443 37.5866C71.2243 37.5986 71.2097 37.5986 71.191 37.6026C71.1657 37.6159 71.1457 37.6132 71.1217 37.6186C71.0963 37.6252 71.075 37.6266 71.0523 37.6266C71.031 37.6319 71.0163 37.6399 70.9963 37.6373C70.971 37.6493 70.9377 37.6493 70.9163 37.6626C70.8977 37.6599 70.883 37.6599 70.8723 37.6693C70.8403 37.6719 70.8097 37.6719 70.7777 37.6773C70.767 37.6826 70.7537 37.6826 70.743 37.6799C70.7043 37.6879 70.6643 37.6933 70.627 37.6999C70.6203 37.6999 70.6163 37.6999 70.615 37.6999C69.647 37.8279 68.5127 37.8253 67.3559 37.7733C66.8529 37.7533 66.3403 37.7239 65.8419 37.6879C65.4075 37.6626 64.9815 37.6399 64.5663 37.6186C63.9591 37.5919 63.3934 37.5826 62.8758 37.5946C62.8726 37.5946 62.8685 37.5946 62.8654 37.5946C62.8169 37.5919 62.7674 37.5946 62.7179 37.5919C62.6945 37.5919 62.6763 37.6026 62.6529 37.5986C62.6185 37.5986 62.5835 37.6026 62.5497 37.6026C62.5174 37.6159 62.4914 37.6133 62.4622 37.6079C62.4346 37.6159 62.4111 37.6159 62.3841 37.6159C62.3523 37.6186 62.3143 37.6266 62.281 37.6253C62.2627 37.6266 62.245 37.6266 62.2231 37.6253C62.1841 37.6306 62.1523 37.6373 62.119 37.6319C62.0982 37.6479 62.0825 37.6426 62.0663 37.6426C62.0258 37.6479 61.9934 37.6573 61.9581 37.6626C61.9425 37.6626 61.9258 37.6599 61.9133 37.6666C61.8726 37.6719 61.833 37.6799 61.7966 37.6799C61.7877 37.6799 61.7794 37.6772 61.7649 37.6879C61.7206 37.6932 61.6758 37.6999 61.6315 37.7146C60.9127 37.0412 60.5649 35.7879 60.6075 34.5492C60.6346 33.8092 60.8039 33.0692 61.1185 32.4786C61.8215 32.3892 62.593 32.3266 63.3982 32.2959C64.0685 32.2639 64.7606 32.2599 65.4491 32.2759C65.5835 32.2853 65.7278 32.2879 65.8611 32.2946C66.119 32.3066 66.369 32.3159 66.619 32.3359C68.9763 32.5199 71.175 33.0866 72.3283 34.3346C72.3777 34.3826 72.415 34.4266 72.4523 34.4746C72.4763 34.7253 72.4763 34.9573 72.467 35.1773C72.4216 36.1079 72.099 36.7386 71.8243 37.4306ZM60.5873 27.7346C60.5747 27.6813 60.5638 27.6306 60.5549 27.5839C60.4543 27.0799 60.4111 26.6546 60.4158 26.2852C60.4543 24.5786 61.557 24.0586 63.0414 23.9986C63.2658 23.9933 63.5049 23.9933 63.7445 24.0026C63.8434 24.0106 63.9445 24.0106 64.0455 24.0212C64.3507 24.0506 64.6597 24.0692 64.9767 24.1119C65.395 24.1706 65.8221 24.2266 66.2466 24.2892C66.3586 24.2999 66.4601 24.3279 66.5654 24.3346C66.9393 24.3906 67.2997 24.4386 67.6565 24.4839C67.8065 24.4999 67.9601 24.5106 68.1034 24.5266C68.2987 24.5506 68.4898 24.5586 68.6721 24.5679C69.2483 24.5933 69.7657 24.5613 70.1777 24.4359C70.9457 25.0746 71.4737 25.9359 71.4323 26.9559C71.4123 27.4172 71.2763 27.9159 70.9883 28.4439C70.855 28.4653 70.7177 28.5012 70.5683 28.5186C70.0203 28.6092 69.3737 28.6839 68.6763 28.7386C67.7247 28.8093 66.6767 28.8492 65.6471 28.8239C65.4471 28.8212 65.243 28.8159 65.0382 28.8066C64.9461 28.8039 64.8575 28.7959 64.7658 28.7919C63.0294 28.7013 61.4726 28.4079 60.7127 27.8399C60.6669 27.8026 60.6273 27.7679 60.5873 27.7346ZM74.6123 30.8399C75.5057 29.3706 76.4817 29.2159 76.7457 27.4586C76.759 27.3706 76.7696 27.2839 76.783 27.2026C76.787 27.1679 76.787 27.1453 76.7883 27.1239C76.795 27.1013 76.795 27.0866 76.7963 27.0626C76.7977 27.0573 76.7977 27.0479 76.7977 27.0386C76.811 26.9093 76.8217 26.7986 76.8257 26.6746C76.8257 26.6626 76.8283 26.6453 76.8283 26.6319C76.8283 26.6093 76.831 26.5719 76.831 26.5439C76.831 26.5386 76.831 26.5386 76.8323 26.5319C76.831 26.4933 76.831 26.4586 76.8336 26.4266C76.8323 26.4159 76.8323 26.4026 76.8336 26.3852C76.8296 26.3586 76.8336 26.3333 76.8336 26.3013C76.8336 26.2826 76.8297 26.2479 76.831 26.2293C76.831 26.2119 76.831 26.1959 76.8297 26.1799C76.8257 26.1479 76.8257 26.1132 76.8257 26.0826C76.8257 26.0719 76.819 26.0639 76.819 26.0639C76.8217 26.0346 76.819 26.0106 76.819 25.9826C76.8217 25.9692 76.815 25.9613 76.815 25.9439C76.815 25.9213 76.8097 25.9026 76.8097 25.8706C76.8097 25.8519 76.8097 25.8479 76.8057 25.8306C76.8043 25.8039 76.7977 25.7799 76.7963 25.7572C76.7963 25.7399 76.7963 25.7292 76.7963 25.7172C76.7923 25.6959 76.7857 25.6586 76.787 25.6386C76.787 25.6226 76.7803 25.6186 76.7803 25.5999C76.779 25.5893 76.7723 25.5666 76.7683 25.5452C76.7697 25.5186 76.7683 25.5106 76.7656 25.4892C76.7603 25.4772 76.7577 25.4639 76.755 25.4532C76.751 25.4252 76.7483 25.3999 76.743 25.3799C76.743 25.3692 76.7403 25.3559 76.7377 25.3479C76.731 25.3252 76.7257 25.2946 76.723 25.2719C76.723 25.2599 76.7177 25.2519 76.715 25.2479C76.7123 25.2132 76.7043 25.1973 76.699 25.1613C76.699 25.1613 76.6963 25.1559 76.6963 25.1492C76.6883 25.1172 76.6777 25.0946 76.6723 25.0679C76.6683 25.0479 76.6683 25.0306 76.659 25.0186C76.659 24.9986 76.6497 24.9799 76.6443 24.9546C76.6403 24.9372 76.6363 24.9159 76.6283 24.8973C76.6243 24.8813 76.6217 24.8693 76.6137 24.8586C76.6083 24.8346 76.5977 24.7972 76.591 24.7812C76.5883 24.7719 76.5843 24.7639 76.5843 24.7506C76.579 24.7399 76.567 24.7186 76.5603 24.6946C76.555 24.6866 76.5563 24.6732 76.5483 24.6519C76.539 24.6306 76.5323 24.6159 76.5257 24.5933C76.5203 24.5746 76.515 24.5679 76.515 24.5653C76.503 24.5386 76.4977 24.5146 76.4843 24.5026C76.483 24.4879 76.479 24.4733 76.4763 24.4639C76.467 24.4386 76.455 24.4213 76.4443 24.4013C76.4403 24.3919 76.4403 24.3759 76.4363 24.3653C76.4257 24.3533 76.4137 24.3293 76.4043 24.2999C76.399 24.2973 76.3963 24.2919 76.391 24.2799C76.3817 24.2572 76.3723 24.2346 76.3603 24.2239C76.3577 24.2066 76.3497 24.1972 76.347 24.1852C76.339 24.1626 76.327 24.1493 76.319 24.1266C76.311 24.1133 76.3043 24.1039 76.299 24.0959C76.2883 24.0679 76.275 24.0519 76.2643 24.0212C76.259 24.0146 76.2577 24.0106 76.2537 24.0106C76.2377 23.9879 76.2283 23.9639 76.2163 23.9373C76.211 23.9319 76.211 23.9266 76.2003 23.9199C76.1856 23.8932 76.171 23.8759 76.155 23.8479C76.155 23.8372 76.151 23.8399 76.1523 23.8279C76.1377 23.8039 76.123 23.7919 76.1057 23.7679C76.1003 23.7573 76.099 23.7546 76.0937 23.7452C76.0803 23.7239 76.0657 23.7066 76.0457 23.6839C76.0457 23.6799 76.0403 23.6639 76.0377 23.6613C76.0257 23.6373 76.007 23.6239 75.9883 23.5986C75.987 23.5946 75.983 23.5879 75.9803 23.5826C75.9657 23.5599 75.9457 23.5412 75.9297 23.5146C75.9243 23.5132 75.9243 23.5079 75.9163 23.5053C75.9016 23.4799 75.8857 23.4546 75.8697 23.4399C75.8657 23.4306 75.8617 23.4239 75.859 23.4212C75.8377 23.3972 75.8257 23.3826 75.8043 23.3573C75.8043 23.3519 75.7963 23.3519 75.7963 23.3479C75.7723 23.3186 75.7577 23.2959 75.7363 23.2719C75.731 23.2719 75.731 23.2719 75.731 23.2653C73.7843 21.0319 69.5257 20.4466 65.1633 20.2532C63.9097 20.1932 62.6529 20.1706 61.4335 20.1466C60.2393 20.1172 59.0873 20.0972 58.0258 20.0506C57.2377 20.0159 56.4982 19.9679 55.8315 19.8892C55.8133 19.8866 55.7877 19.8839 55.7695 19.8839C55.7321 19.8839 55.6945 19.8773 55.6543 19.8693C55.6346 19.8693 55.6158 19.8626 55.593 19.8626C55.5559 19.8573 55.5154 19.8572 55.4815 19.8479C55.4715 19.8466 55.4601 19.8479 55.4543 19.8479C55.2925 19.8212 55.1315 19.7986 54.9835 19.7693C55.5518 26.9586 55.4321 34.3719 55.2794 40.6599C55.3565 40.6626 55.431 40.6679 55.5106 40.6693C57.1154 40.7439 59.133 41.0066 61.2877 41.2879C63.4377 41.5626 65.7321 41.8426 67.9154 41.9346C70.2537 42.0426 72.4537 41.9346 74.1897 41.3839L74.1963 41.3879C74.207 41.3759 74.2123 41.3733 74.219 41.3733C76.395 40.6719 77.8257 39.2666 77.8763 36.6892C77.8817 36.4519 77.8723 36.2186 77.855 35.9639C77.667 33.5079 75.547 33.0453 74.6123 30.8399Z" fill="#171717"/>
<path d="M108.716 66.7054C108.562 66.796 108.37 66.8654 108.154 66.9294C107.563 67.0867 106.802 67.1534 106.007 67.1334C105.968 67.1254 105.94 67.1227 105.899 67.1227C105.682 67.1134 105.47 67.1054 105.248 67.0814C104.268 66.976 103.35 66.7174 102.816 66.3494C102.732 66.2854 102.65 66.22 102.586 66.152C103.332 63.9187 103.583 61.1774 105.346 60.0587C107.151 61.66 108.023 64.112 108.772 66.672C108.76 66.6814 108.735 66.696 108.716 66.7054ZM102.539 56.2067C101.508 61.7694 97.8469 66.4494 96.8149 72.84C96.9709 72.9134 97.1416 72.9787 97.3229 73.0214C97.6909 73.1187 98.1163 73.16 98.5589 73.1814C98.6016 73.1787 98.6509 73.1814 98.6936 73.1854C99.0523 73.1947 99.4176 73.2094 99.7789 73.2267C99.7763 73.1347 99.7736 73.044 99.7789 72.9574C99.7789 72.904 99.7829 72.856 99.7856 72.8134C99.9616 70.2347 102.498 69.0814 105.235 69.088C105.383 69.0827 105.526 69.088 105.67 69.0974C105.812 69.1 105.968 69.1107 106.118 69.1267C109.199 69.408 112.223 71.0894 112.186 73.7867C112.71 73.9374 113.134 73.9947 113.522 74.0147C113.904 74.0307 114.259 74.0094 114.647 73.9827C115.036 73.9574 115.456 73.9334 115.982 73.9547C116.038 73.9614 116.091 73.964 116.146 73.964C113.12 68.0094 110.771 61.4454 107.267 55.9227C105.891 56.2267 103.866 55.832 102.539 56.2067Z" fill="#171717"/>
<path d="M100.475 22.3174C100.276 22.3068 100.087 22.3054 99.9003 22.3147C99.5883 22.3241 99.275 22.3521 98.9656 22.3801C98.4763 22.4174 97.9816 22.4588 97.475 22.4374C96.967 22.4134 96.439 22.3241 95.8776 22.1134C94.5003 23.2307 93.6323 29.3214 91.811 29.6348C91.7456 29.6481 91.687 29.6481 91.6296 29.6521C91.6056 29.6548 91.5883 29.6521 91.5696 29.6481C90.8923 29.6201 90.2296 28.9841 89.6083 28.0774C88.2736 26.1241 87.1323 22.9134 86.4896 21.7614C86.4776 21.7361 86.459 21.7121 86.4456 21.6828C84.2176 21.5841 81.9803 21.4828 79.7496 21.3868C80.8003 23.7361 82.5123 25.6214 84.403 28.5494C87.2736 33.0041 89.1283 35.1961 88.9043 40.7134C88.871 41.3987 88.8123 42.1228 88.7256 42.9054C88.8056 42.9494 88.8936 42.9681 88.9843 42.9974C89.1656 43.0601 89.355 43.0974 89.5563 43.1334C89.9523 43.2188 90.3803 43.2628 90.827 43.2854C90.939 43.2908 91.0536 43.3014 91.1683 43.3094C91.6496 43.3308 92.1483 43.3294 92.647 43.3361C93.131 43.3481 93.6123 43.3601 94.0856 43.3801C94.455 43.4001 94.8123 43.4201 95.1576 43.4521C94.4323 41.5454 94.1736 39.7681 94.2523 38.1147C94.547 31.8907 99.523 27.1921 102.059 22.6441C101.603 22.4708 101.174 22.3748 100.762 22.3401C100.668 22.3334 100.567 22.3214 100.475 22.3174Z" fill="#171717"/>
<path d="M163.574 69.1426C163.496 69.1546 163.42 69.1665 163.339 69.1785C163.01 69.2212 162.62 69.2679 162.18 69.2919C161.687 69.3319 161.139 69.3412 160.603 69.3319C160.478 69.3359 160.363 69.3239 160.251 69.3212C159.987 69.3119 159.735 69.2892 159.487 69.2652C158.878 69.2012 158.323 69.0879 157.896 68.9052C157.698 68.8239 157.518 68.7372 157.384 68.6199C157.591 66.8386 158.123 63.4039 159.896 62.5172C162.038 63.8812 163.127 66.2279 163.574 69.1426ZM161.17 58.7239C160.919 58.7119 160.615 58.7239 160.287 58.7359C159.963 58.7452 159.603 58.7572 159.244 58.7372C158.754 58.7146 158.259 58.6399 157.843 58.4452C155.879 64.1039 153.536 69.3519 151.391 74.8012C151.424 74.8612 151.46 74.9012 151.507 74.9506C151.576 75.0266 151.674 75.0999 151.768 75.1626C151.986 75.2759 152.232 75.3386 152.507 75.3586C152.56 75.3612 152.603 75.3706 152.66 75.3706C153.372 75.4039 154.199 75.2279 154.846 75.2106C154.848 75.1519 154.85 75.0919 154.854 75.0266C154.947 73.1852 155.638 72.0079 156.768 71.3239C158.258 71.3492 159.344 71.3266 160.319 71.3239C160.634 71.3239 160.93 71.3266 161.227 71.3332C161.348 71.3359 161.478 71.3359 161.606 71.3399C161.674 71.3426 161.747 71.3479 161.814 71.3519C162.827 71.4106 163.874 71.5612 165.334 71.8972C165.398 71.9066 165.456 71.9212 165.523 71.9359C165.576 71.9479 165.63 71.9666 165.683 71.9732C166.148 73.3626 166.858 74.5479 167.243 76.0145C167.479 75.9785 167.715 75.9745 167.948 75.9785C168 75.9839 168.056 75.9866 168.107 75.9892C168.312 76.0079 168.518 76.0386 168.712 76.0692C168.866 76.0972 169.012 76.1239 169.16 76.1465C169.488 76.2145 169.807 76.2759 170.092 76.2919C170.14 76.3012 170.176 76.3012 170.223 76.3066C170.406 76.3186 170.571 76.2972 170.724 76.2706C170.812 76.2426 170.887 76.2172 170.964 76.1866C168.644 70.6946 165.168 64.1959 161.802 58.8746C161.667 58.7786 161.451 58.7359 161.17 58.7239Z" fill="#171717"/>
<path d="M196.843 59.6814C196.79 59.676 196.74 59.6734 196.698 59.6707C196.358 59.6814 196.074 59.736 195.79 59.792C195.591 59.8227 195.383 59.872 195.168 59.8867C195.124 59.8867 195.079 59.9027 195.031 59.892C194.94 59.9027 194.848 59.9027 194.75 59.8947C194.616 59.8867 194.464 59.8773 194.307 59.8454C194.826 66.02 194.8 71.6467 195.512 77.288C195.966 77.1707 196.427 77.16 196.868 77.1814C196.96 77.1854 197.05 77.188 197.144 77.1947C197.234 77.196 197.316 77.2054 197.408 77.216C197.588 77.2254 197.772 77.244 197.939 77.2507C198.234 77.2667 198.508 77.2534 198.736 77.1854C198.018 72.9334 198.08 65.3454 197.29 59.728C197.128 59.6987 196.983 59.6827 196.843 59.6814Z" fill="#171717"/>
<path d="M225.199 40.792C225.127 40.828 225.067 40.8546 225.002 40.8906C224.302 41.1906 223.358 41.324 222.395 41.288C222.356 41.2826 222.315 41.2826 222.282 41.28C221.932 41.2626 221.586 41.2347 221.252 41.1693C221.142 41.148 221.024 41.1306 220.914 41.1146C220.846 41.096 220.768 41.0746 220.698 41.0573C220.214 40.936 219.764 40.7733 219.388 40.5573C219.26 40.4866 219.143 40.4147 219.043 40.336C219.486 37.18 220.678 34.8413 221.878 32.508C224.239 34.168 224.374 37.8373 225.488 40.6213C225.403 40.6773 225.302 40.7453 225.199 40.792ZM235.279 49.508C232.575 42.156 228.32 36.2186 226.552 27.9946C225.307 27.9507 224.348 27.956 223.483 27.9613C222.952 27.9573 222.458 27.956 221.946 27.9453C221.816 27.9386 221.674 27.9333 221.539 27.928C220.75 27.892 219.908 27.8173 218.859 27.648C216.735 33.964 213.906 41.6026 211.228 48.1786C211.458 48.1946 211.691 48.2133 211.919 48.2226C212.238 48.236 212.566 48.2413 212.883 48.252C213.224 48.2693 213.559 48.272 213.894 48.2866C214.08 48.2973 214.271 48.3053 214.459 48.3226C214.591 48.3253 214.711 48.3426 214.832 48.3493C215.324 48.4 215.786 48.4533 216.212 48.5453C216.372 48.58 216.53 48.6293 216.674 48.672C217.18 47.16 216.955 44.8093 218.363 44.28C219.034 44.24 219.794 44.1946 220.587 44.1533C221.284 44.136 222.018 44.1227 222.739 44.1427C222.836 44.148 222.943 44.1506 223.04 44.1573C223.15 44.1653 223.254 44.1653 223.354 44.172C226.516 44.3653 229.328 45.3333 228.635 48.7667C228.618 48.8307 228.604 48.892 228.59 48.96C230.548 49.1226 233.32 49.0987 235.279 49.508Z" fill="#171717"/>
<path d="M243.652 62.0321C243.146 62.0107 242.639 62.0814 242.406 62.2534C242.236 62.792 242.158 63.3494 242.13 63.9294C242.018 66.2654 242.804 68.928 242.683 71.212C242.643 72 242.484 72.7534 242.144 73.4254C240.186 72.0174 238.378 69.9734 236.2 67.692C235.938 67.4254 235.676 67.1254 235.426 66.8107C233.759 64.7561 232.18 62.0721 229.456 61.6734C229.295 61.6494 229.136 61.6347 228.978 61.6281C228.944 61.6281 228.907 61.628 228.875 61.6214C228.423 61.612 227.94 61.6667 227.426 61.7854C227.371 61.8027 227.319 61.8134 227.264 61.8227C227.224 62.3347 227.192 62.8414 227.171 63.348C226.942 68.284 227.236 73.4934 227.992 78.7454C228.274 78.9587 228.867 79.0867 229.464 79.1081C230.072 79.1427 230.676 79.0627 230.962 78.884C230.626 76.2707 230.015 72.468 230.146 69.4494C230.188 68.516 230.302 67.6654 230.51 66.9361C230.759 66.9467 230.814 66.7547 231.03 66.716C235.358 70.6814 239.4 74.9014 242.858 79.6734C243.067 79.6481 243.272 79.6414 243.468 79.6507C243.482 79.6507 243.491 79.6507 243.5 79.6507C243.546 79.6534 243.584 79.6534 243.627 79.6614C243.947 79.6814 244.255 79.7414 244.552 79.7907C244.882 79.8547 245.199 79.912 245.464 79.92C245.706 79.9294 245.922 79.908 246.086 79.8187C245.256 74.5667 245.698 68.4881 244.878 62.3641C244.664 62.1761 244.162 62.0587 243.652 62.0321Z" fill="#171717"/>
<path d="M181.842 71.708C179.47 67.6174 177.095 63.5294 175.215 58.988C175.115 58.9907 175.034 58.996 174.948 59C174.858 58.9987 174.784 58.9987 174.706 58.9907C174.295 58.9707 174.003 58.9014 173.748 58.8374C173.495 58.7654 173.274 58.6947 173.039 58.6854C172.811 58.6814 172.566 58.7147 172.234 58.8507C172.752 61.3134 174.806 64.6774 176.324 67.4734C177.866 70.3294 178.963 73.3534 180.402 76.1147C180.427 76.1307 180.442 76.1454 180.46 76.1614C180.611 76.2654 180.803 76.348 181.02 76.3907C181.104 76.412 181.196 76.42 181.284 76.4374C181.406 76.448 181.532 76.4587 181.66 76.4614C181.952 76.476 182.272 76.4734 182.586 76.4587C182.9 76.4587 183.208 76.4614 183.504 76.4734C183.558 76.4734 183.614 76.4787 183.664 76.4787C183.822 76.496 183.975 76.5067 184.112 76.5307C185.748 69.88 188.519 65.608 190.85 59.44C189.778 59.392 188.7 59.348 187.618 59.2934C185.43 63.1307 184.907 68.8107 181.842 71.708Z" fill="#171717"/>
<path d="M213.307 76.2972C213.05 76.2972 212.791 76.3012 212.532 76.2919C212.48 76.2906 212.431 76.2879 212.379 76.2839C210.894 76.1919 209.44 75.7319 208.291 74.8799C206.46 73.5305 205.272 70.8439 205.364 68.3492C205.47 65.6905 207.024 63.2359 210.819 62.8266C210.98 62.8106 211.143 62.7932 211.311 62.7839C211.551 62.7746 211.792 62.7772 212.039 62.7839C212.059 62.7812 212.094 62.7919 212.116 62.7919C212.236 62.7932 212.35 62.8026 212.463 62.8106C216.046 63.1172 219.339 65.6026 219.998 68.6972C220.055 68.9599 220.086 69.2212 220.123 69.4706C220.596 73.7706 217.002 76.1372 213.307 76.2972ZM222.975 67.5932C222.954 67.5266 222.938 67.4612 222.907 67.3932C222.875 67.2906 222.839 67.1946 222.808 67.0906C222.787 67.0319 222.767 66.9826 222.746 66.9319C221.471 63.6719 217.21 60.8826 212.935 60.4506C212.716 60.4212 212.5 60.4092 212.284 60.3999C212.224 60.3946 212.16 60.3892 212.107 60.3919C212.047 60.3919 211.986 60.3919 211.926 60.3919C206.074 60.3159 201.979 64.0772 201.747 68.5066C201.642 70.4452 202.28 72.5146 203.843 74.4359C205.768 76.8159 209.102 78.1386 212.483 78.3652C212.599 78.3679 212.707 78.3706 212.818 78.3772C213.016 78.3879 213.212 78.3986 213.419 78.3986C219.414 78.4359 225.166 75.0079 223.05 67.8212C223.02 67.7452 223.002 67.6706 222.975 67.5932Z" fill="#171717"/>
<path d="M201.88 35.0852C203.014 38.3159 202.015 43.5853 202.298 47.7719C203.156 47.8146 203.866 47.7506 204.524 47.6946C205.043 47.6519 205.528 47.6039 206.042 47.5959C206.184 47.5959 206.328 47.6013 206.474 47.6079C206.526 47.6133 206.57 47.6132 206.627 47.6239C206.843 47.6292 207.067 47.6586 207.298 47.6866C207.45 47.7239 207.607 47.7452 207.772 47.7812C207.142 41.1959 206.808 33.4399 206.975 26.8679C206.652 26.8679 206.327 26.8639 206.006 26.8559C205.895 26.8492 205.788 26.8479 205.678 26.8426C204.999 26.8079 204.324 26.7559 203.671 26.7172C202.952 26.6692 202.264 26.6159 201.634 26.5839C201.512 26.5812 201.392 26.5773 201.268 26.5693C200.922 26.5639 200.587 26.5639 200.275 26.5693C199.768 28.8693 198.086 29.8932 197.774 32.4172C196.278 33.2892 196.582 36.1252 194.611 36.4946C192.347 33.4199 190.527 29.9373 189.114 26.0666C188.494 26.1079 187.924 26.1132 187.382 26.0866C187.303 26.0866 187.23 26.0866 187.15 26.0866C186.504 26.0612 185.892 25.9973 185.248 25.9413C184.558 25.8893 183.831 25.8252 183.004 25.7919C182.914 25.7852 182.815 25.7853 182.719 25.7773C182.618 25.7719 182.516 25.7719 182.423 25.7639C182.3 31.8719 183.036 39.7932 182.774 45.7866C182.76 46.0732 182.746 46.3692 182.726 46.6546C183.14 46.7372 183.631 46.8652 184.142 46.9786C184.727 47.1132 185.36 47.2319 185.96 47.2826C186.035 47.2892 186.112 47.2932 186.187 47.2972C186.727 47.3199 187.238 47.2772 187.678 47.1159C187.604 43.8746 186.666 39.9586 186.828 36.5972C186.872 35.6546 187.008 34.7626 187.271 33.9373C191.171 37.1066 191.575 43.4839 195.136 46.9572C197.736 43.5692 198.4 36.6532 201.88 35.0852Z" fill="#171717"/>
<path d="M177.872 98.1813L177.386 97.6587L178.15 97.012L177.244 97.492C176.37 96.4587 175.044 94.8987 175.146 93.1413C175.172 92.8467 175.215 92.6187 175.274 92.416L175.932 90.2013L177.727 91.656C179.188 92.84 179.931 94.5187 180.52 96.1613L181.303 98.352L177.872 98.1813Z" fill="#171717"/>
<path d="M178.988 98.2107L178.783 96.9973C178.754 96.8293 178.491 96.4587 178.302 96.1947C177.852 95.5587 177.234 94.6933 177.267 93.5587C177.276 93.1347 177.39 92.6987 177.608 92.264L178.412 90.6587L179.875 91.6987C181.007 92.4933 181.384 93.76 181.686 94.7786C181.827 95.2493 181.958 95.6933 182.127 95.9786L183.579 98.4413L178.988 98.2107Z" fill="#171717"/>
<path d="M204.259 99.368L203.904 98.4067C203.755 98.0107 203.427 97.652 203.046 97.2347C202.552 96.7 201.938 96.036 201.576 95.084L200.743 92.8773L203.45 93.024C203.663 93.052 203.868 93.104 204.064 93.1813C204.362 93.2786 204.714 93.4853 205.086 93.8093C205.471 94.1467 205.819 94.5693 206.175 95.116C206.396 95.4586 206.616 95.824 206.822 96.1733C207.002 96.4693 207.174 96.7613 207.348 96.9973L209.208 99.5773L204.259 99.368Z" fill="#171717"/>
<path d="M280.216 94.676C279.834 94.5627 279.466 94.472 279.118 94.428L278.45 94.3973C278.056 94.4147 277.691 94.508 277.396 94.6467L276.327 94.028L275.918 94.056C275.282 94.1013 274.663 94.1227 274.046 94.1267C273.486 94.1267 272.936 94.1227 272.128 94.084L271.588 94.0533C270.679 94.008 269.786 93.928 268.915 93.8533L267.759 93.7427C266.354 93.6013 265.003 93.4653 263.755 93.412C262.987 93.3773 262.252 93.3707 261.57 93.4027L261.192 93.4653C260.759 93.604 260.395 93.7373 260.06 93.86C259.618 94.016 259.304 94.136 258.972 94.1947C258.232 93.5813 257.207 93.1707 255.99 93.0133C255.795 92.9853 255.596 92.968 255.24 92.9493C254.923 92.9413 254.608 92.9373 254.332 92.9573C253.024 93.032 251.951 93.36 251.211 93.9173C251.168 93.9013 251.127 93.8827 251.084 93.8693C250.984 93.832 250.852 93.7787 250.748 93.74L250.259 90.852L248.079 93.096C248.002 93.0427 247.908 92.968 247.788 92.86L246.958 92.136L246.006 92.688C245.931 92.732 245.863 92.7747 245.799 92.8213C245.648 92.7653 245.486 92.7187 245.314 92.6813L245.158 92.6547H245.003C244.396 92.6613 243.871 92.76 243.41 92.9093L243.48 92.652L241.908 92.2893C241.755 92.2533 241.607 92.228 241.464 92.208L241.138 92.1786C240.136 92.1333 239.432 92.4853 238.927 92.9L237.955 92.4347C237.667 92.304 237.418 92.228 236.794 92.1587C236.011 92.1253 235.291 92.3747 234.707 92.64C234.019 92.088 233.108 91.7467 231.951 91.6L231.007 91.5187C230.704 91.5093 230.39 91.5 230.067 91.5L229.428 91.516L229.479 93.0627L228.946 91.528L228.47 91.548C227.75 91.5707 227.047 91.6 226.388 91.5707L226.068 91.552C225.066 91.468 224.028 91.3987 222.75 91.324C221.931 91.276 221.094 91.2333 220.251 91.1933L211.508 90.8533C208.974 90.772 206.45 90.684 204.034 90.5733L202.952 90.5227C202.978 90.4187 203.003 90.308 203.016 90.1907L203.143 89.196L202.284 88.6813C201.778 88.3693 201.224 88.1946 200.734 88.0453C200.468 87.9613 200.202 87.8907 199.976 87.776L199.054 87.316L198.274 87.9987C197.787 88.4227 197.507 88.9973 197.479 89.612C197.468 89.8213 197.49 90.02 197.526 90.2067C195.4 90.0733 193.368 89.964 191.392 89.872C188.983 89.7707 186.671 89.6853 184.399 89.6027L183.544 89.5693C181.61 89.5027 179.7 89.4387 177.775 89.3493L175.776 89.2587C173.335 89.1253 170.868 88.9653 168.338 88.736L167.58 88.6627C166.726 88.5827 165.866 88.5227 165.011 88.468L163.468 88.3867C161.812 88.3133 160.147 88.2733 158.488 88.256L155.495 88.2227C152.983 88.2027 150.486 88.1813 148.006 88.072C147.163 88.028 146.312 87.984 145.463 87.912C139.698 87.4893 134.034 87.112 128.438 86.7827C123.3 86.472 118.211 86.2173 113.144 85.9867L113.072 87.5293L112.811 85.9747L112.488 85.9587C101.508 85.4613 90.0563 85.0987 76.631 84.8227L75.6643 84.692C73.0763 84.3627 70.1577 84.128 66.7382 83.9733C63.1507 83.8133 59.4215 83.7507 55.631 83.692L54.5351 83.672C52.3325 83.6333 50.1075 83.596 47.893 83.5293L42.0049 83.2747C40.0258 72.272 40.021 59.3093 40.0158 46.752L40.0023 40.9027C39.9966 39.1627 39.8263 37.4933 39.6654 35.8773C39.4914 34.1533 39.3294 32.528 39.3851 31.0667C39.4335 29.884 39.6294 28.9173 39.9789 28.1146L40.2283 27.54L40.007 26.956C39.2873 25.036 38.8471 22.1 38.769 18.696C38.6325 13.2867 38.6925 7.50266 38.7658 3.18532L44.733 3.39867C51.8633 3.652 58.9258 3.94667 66.1638 4.268L66.6117 4.29066C84.719 5.11066 103.98 6.168 125.502 7.53066L130.118 7.82533C134.674 8.11465 139.284 8.37865 143.922 8.62266C148.364 8.85199 152.819 9.06665 157.55 9.28532L158.31 9.31598C161.599 9.46132 164.886 9.60667 168.178 9.74001C171.324 9.88134 174.488 10.0093 177.632 10.136L199.342 11.0427L199.412 9.50534L199.664 11.0573L200.008 11.0693C203.503 11.228 206.967 11.3987 210.396 11.5733C213.938 11.7533 217.43 11.9493 220.87 12.152C225.063 12.4093 229.227 12.6747 233.358 12.936C241.182 13.4307 250.051 13.996 258.642 14.3853L259.468 14.4267C265.888 14.708 271.598 14.8813 276.896 14.956C276.976 15.0493 277.062 15.1373 277.15 15.2267C277.483 32.08 278.64 53.18 279.663 71.8333L280.008 78.184C280.155 80.8293 280.303 83.5093 280.379 85.96L280.414 86.9067C280.451 87.9253 280.492 88.9893 280.443 90.0133L281.967 90.344L280.394 90.5267L280.263 91.46C280.098 92.564 279.931 93.692 280.216 94.676ZM285.374 95.5907L285.378 93.4933L283.595 93.656L283.18 93.8173C283.074 93.536 283.226 92.5213 283.315 91.916C283.366 91.5787 283.418 91.2333 283.458 90.8867L283.538 89.9707C283.58 89.0573 283.538 87.896 283.498 86.792L283.463 85.8667C283.386 83.3867 283.238 80.6867 283.091 78.016L282.743 71.664C281.707 52.768 280.531 31.3467 280.222 14.432L280.207 13.5613L279.45 13.1253C279.358 13.0693 279.232 12.9786 279.118 12.748L278.702 11.8907L277.75 11.876C272.256 11.8133 266.32 11.6373 259.388 11.336L258.79 11.3013C250.218 10.916 241.364 10.3547 233.552 9.85732C229.42 9.59199 225.256 9.33067 221.056 9.07334C217.607 8.86401 214.104 8.67599 210.556 8.49199C207.119 8.31732 203.648 8.15599 200.151 7.99199L177.758 7.04798C174.614 6.92265 171.456 6.79332 168.308 6.65733C165.016 6.52532 161.732 6.38667 158.447 6.23333L157.434 6.19333C152.967 5.98666 148.52 5.77867 144.087 5.53734C139.458 5.29867 134.859 5.03735 130.32 4.74401L125.691 4.45065C104.156 3.08932 84.879 2.02933 66.4841 1.19733L66.0805 1.17864C59.0539 0.862648 51.9841 0.570671 44.8434 0.308006L35.7409 0L35.7106 1.56133C35.6258 5.99733 35.5305 12.6133 35.6825 18.776C35.7409 21.2453 36.0065 24.6893 36.9201 27.464C36.5586 28.484 36.3575 29.6307 36.3049 30.9413C36.2367 32.6187 36.4101 34.3547 36.5961 36.1893C36.7487 37.7333 36.9101 39.3253 36.9185 40.9173L36.9267 46.752C36.9362 59.9027 36.9419 73.5027 39.1977 85.0373L39.4253 86.2L47.7882 86.6187C50.0294 86.68 52.2654 86.7173 54.4805 86.76L55.5805 86.7827C59.3461 86.836 63.0414 86.8987 66.6034 87.056C69.935 87.204 72.7683 87.4333 75.2697 87.7533L76.3803 87.8947C89.9643 88.1813 101.395 88.5427 112.35 89.0413L112.675 89.0573L112.742 87.5173L113.004 89.0693C118.059 89.2987 123.128 89.5573 128.256 89.8653C133.839 90.188 139.486 90.568 145.224 90.992C146.095 91.0627 146.982 91.1147 147.866 91.1533C150.388 91.264 152.923 91.2867 155.607 91.304L158.456 91.3427C160.08 91.3573 161.71 91.3947 163.484 91.4733L164.827 91.552C165.652 91.6 166.478 91.6587 167.282 91.7373L168.023 91.808C170.63 92.0387 173.132 92.208 175.623 92.3467L177.639 92.432C179.571 92.516 181.488 92.5853 183.432 92.6547L184.287 92.688C186.552 92.7653 188.859 92.8533 191.262 92.9573C193.886 93.0787 196.619 93.224 199.536 93.44L203.886 93.656C206.324 93.7693 208.859 93.8533 211.407 93.9373L220.11 94.276C220.935 94.3173 221.758 94.352 222.778 94.4147C223.815 94.4827 224.832 94.5453 225.783 94.6227C225.943 94.6387 226.114 94.648 226.238 94.648C226.982 94.6853 227.772 94.664 228.686 94.6267L230.099 94.5827C230.363 94.5827 230.624 94.5893 230.88 94.6027L230.946 93.0667L231.118 94.1413C231.027 94.38 230.998 94.608 230.99 94.7693C230.976 94.988 231 95.2213 231.058 95.468L231.228 96.2147L232.494 96.672L233.264 96.6613C233.626 96.604 233.934 96.4853 234.143 96.4C234.471 96.2547 234.819 96.0747 235.171 95.8827L234.979 95.5213C235.036 95.4747 235.095 95.4213 235.152 95.3667L235.462 95.7267L235.224 95.2827C235.275 95.2213 235.324 95.1547 235.368 95.084L235.458 95.188C235.49 95.8533 235.811 96.44 236.371 96.8427L236.66 97.0387L237.608 97.1827C237.831 97.1867 238.04 97.1787 238.235 97.152L238.044 97.76L240.398 97.492C241.635 97.356 242.508 96.8373 243.208 96.4213C243.543 96.2173 243.83 96.048 244.126 95.928C244.382 96.648 245.05 97.1373 246.082 97.272L246.099 97.2773L246.936 97.3333L247.442 96.6573C247.54 96.5227 247.618 96.3906 247.68 96.2453C247.766 96.2546 247.862 96.2653 247.97 96.28L248.523 96.26C248.631 96.2453 248.736 96.2213 248.844 96.1947C249.26 96.484 249.699 96.6427 250.002 96.7533C250.162 96.8173 250.402 96.9187 250.387 96.872L253.898 102.06L253.214 96.2893C253.468 96.188 253.912 96.068 254.536 96.036C254.734 96.0187 254.935 96.024 255.219 96.0387L255.596 96.0693C256.419 96.1787 256.947 96.4533 257.104 96.676L257.562 97.3253L258.356 97.3307C259.535 97.34 260.34 97.0413 261.122 96.7507C261.362 96.6693 261.616 96.5747 261.91 96.476C262.448 96.4587 263.023 96.4667 263.619 96.4933C264.811 96.5507 266.106 96.6787 267.755 96.8427L268.642 96.9253C269.552 97.0013 270.486 97.084 271.555 97.1373L272.266 97.1786C272.854 97.204 273.442 97.2107 274.05 97.2107C274.576 97.2107 275.098 97.1947 275.624 97.1693H275.622C276.156 97.548 276.67 98.02 277.503 98.032L278.75 97.9933L278.938 97.528C279.539 97.656 280.419 98.008 281.204 98.32C282.027 98.652 282.83 98.9667 283.618 99.164L285.04 99.364L285.519 98.352C285.723 97.9333 285.831 97.5453 285.854 97.1027C285.863 96.368 285.558 95.8827 285.374 95.5907Z" fill="#171717"/>
<path d="M284.007 81.3427L282.706 80.204C281.554 79.1894 280.996 77.8694 281.056 76.288C281.091 75.3134 281.343 74.3947 281.567 73.5787L282.495 69.904L284.44 72.348C285.502 73.672 286.054 75.376 285.958 77.0227C285.899 78.0854 285.566 79.088 284.991 79.9174L284.007 81.3427Z" fill="#171717"/>
<path d="M265.843 98.6374C265.567 98.6041 265.29 98.5227 265.028 98.3854L263.975 97.4414L263.991 96.812C264.01 95.4414 265.079 94.3867 266.423 94.3774L267.036 94.4614C267.179 94.4534 267.451 94.5694 267.714 94.7441L268.172 95.1174L268.602 95.5641L268.595 96.188C268.499 97.428 267.822 98.2627 266.858 98.552L265.843 98.6374Z" fill="#171717"/>
</svg>
